# xmcd CD database file
#
# Track frame offsets:
#	150
#	25250
#	45300
#	74971
#	91514
#	108391
#	126982
#	148859
#	169976
#	190353
#	204305
#	226727
#
# Disc length: 3408 seconds
#
# Revision: 0
# Processed by: cddbd v1.4PL0 Copyright (c) Steve Scherf et al.
# Submitted via: CDex 1.50beta9
#
DISCID=a80d4e0c
DTITLE=SLAWEK - ISTANBLUES
DYEAR=2003
DGENRE=Blues
TTITLE0=ISTANBLUES
TTITLE1=TRAVELLING BLUES
TTITLE2=SOUVIENS TOI DE MOI
TTITLE3=RUINE BABINE
TTITLE4=ANNABELLE
TTITLE5=JE N'OUBLIE PAS
TTITLE6=ONE DAY
TTITLE7=VOODOO CHILD
TTITLE8=PERDU
TTITLE9=FAINEANT
TTITLE10=WAMBAWE
TTITLE11=ONE MORE TIME
EXTD=YEAR: 2003
EXTT0=
EXTT1=
EXTT2=
EXTT3=
EXTT4=
EXTT5=
EXTT6=
EXTT7=
EXTT8=
EXTT9=
EXTT10=
EXTT11=
PLAYORDER=
